<?xml version="1.0" standalone="no"?>
<!DOCTYPE svg PUBLIC "-//W3C//DTD SVG 20010904//EN"
 "http://www.w3.org/TR/2001/REC-SVG-20010904/DTD/svg10.dtd">
<svg version="1.0" xmlns="http://www.w3.org/2000/svg"
 width="314.000000pt" height="314.000000pt" viewBox="0 0 314.000000 314.000000"
 preserveAspectRatio="xMidYMid meet">

<g transform="translate(0.000000,314.000000) scale(0.100000,-0.100000)"
fill="#000000" stroke="none">
<path d="M1227 1816 c-124 -45 -193 -164 -167 -289 23 -115 111 -187 235 -195
62 -4 81 -1 126 20 64 29 119 81 119 111 0 12 -8 34 -18 50 l-19 27 -32 -41
c-49 -60 -86 -79 -154 -79 -66 0 -103 16 -140 59 -53 63 -43 155 23 215 46 41
74 50 137 43 78 -8 120 -47 184 -170 92 -179 158 -230 294 -231 67 -1 89 3
129 24 61 31 95 73 80 98 -17 27 -52 26 -94 -3 -54 -37 -101 -46 -162 -30 -68
17 -100 52 -166 178 -40 79 -69 121 -105 153 -75 68 -182 91 -270 60z"/>
<path d="M1744 1820 c-45 -14 -124 -70 -142 -102 -15 -26 -15 -30 6 -74 l23
-47 34 50 c64 95 174 120 265 59 44 -29 60 -32 78 -14 28 28 -5 76 -78 113
-40 21 -142 29 -186 15z"/>
</g>
</svg>
